<?xml version="1.0" encoding="UTF-8" standalone="no"?>
<svg
   width="24"
   height="24"
   viewBox="0 0 24 24"
   fill="none"
   stroke="currentColor"
   stroke-width="2"
   stroke-linecap="round"
   stroke-linejoin="round"
   class="lucide lucide-webhook"
   version="1.1"
   id="svg3"
   sodipodi:docname="webhook.svg"
   inkscape:version="1.3.2 (091e20e, 2023-11-25, custom)"
   xmlns:inkscape="http://www.inkscape.org/namespaces/inkscape"
   xmlns:sodipodi="http://sodipodi.sourceforge.net/DTD/sodipodi-0.dtd"
   xmlns="http://www.w3.org/2000/svg"
   xmlns:svg="http://www.w3.org/2000/svg">
  <defs
     id="defs3" />
  <sodipodi:namedview
     id="namedview3"
     pagecolor="#ffffff"
     bordercolor="#000000"
     borderopacity="0.25"
     inkscape:showpageshadow="2"
     inkscape:pageopacity="0.0"
     inkscape:pagecheckerboard="0"
     inkscape:deskcolor="#d1d1d1"
     inkscape:zoom="5.9883106"
     inkscape:cx="11.605944"
     inkscape:cy="-3.7573202"
     inkscape:window-width="1920"
     inkscape:window-height="1009"
     inkscape:window-x="1912"
     inkscape:window-y="-8"
     inkscape:window-maximized="1"
     inkscape:current-layer="svg3" />
  <circle
     style="fill:#008d00;fill-opacity:1;stroke:#00ff00;stroke-width:1.75646"
     id="path4"
     cx="12.009695"
     cy="12.016859"
     r="11.096157" />
  <path
     d="m 18,16.019796 h -5.99 c -1.1,0 -1.95,0.94 -2.48,1.9 a 4,4 0 0 1 -7.53,-1.88 c 0.01,-0.7 0.2,-1.4 0.57,-2"
     id="path1" />
  <path
     d="m 6,16.039796 3.13,-5.78 c 0.53,-0.97 0.1,-2.18 -0.5,-3.1 a 4,4 0 1 1 6.89,-4.06"
     id="path2" />
  <path
     d="m 12,5.039796 3.13,5.73 c 0.53,0.97 1.77,1.27 2.87,1.27 a 4,4 0 0 1 0,8"
     id="path3" />
</svg>
